<?xml version="1.0" encoding="utf-8"?>
<!-- Generator: Adobe Illustrator 19.2.0, SVG Export Plug-In . SVG Version: 6.00 Build 0)  -->
<svg version="1.1" xmlns="http://www.w3.org/2000/svg" xmlns:xlink="http://www.w3.org/1999/xlink" x="0px" y="0px"
	 viewBox="0 0 32 32" style="enable-background:new 0 0 32 32;" xml:space="preserve">
<style type="text/css">
	.st0{fill:#424242;}
	.st1{fill:#1BA1E2;}
	.st2{fill:#FFC821;}
	.st3{fill:#DCDBDD;}
	.st4{fill:#2A2A2A;}
	.st5{clip-path:url(#SVGID_2_);fill:#2A2A2A;}
	.st6{clip-path:url(#SVGID_2_);fill:#DCDBDD;}
	.st7{fill:#1B5EAB;}
	.st8{fill:#F77737;}
	.st9{fill:#9B4F96;}
	.st10{fill:none;stroke:#9B4F96;stroke-width:2;stroke-miterlimit:10;}
	.st11{fill:#9F67FF;}
	.st12{fill:#57AA54;}
	.st13{fill:#8D4888;}
	.st14{opacity:0;fill:#F6F6F6;}
	.st15{fill:#F05133;}
	.st16{fill:#CC4E51;}
	.st17{fill:#E4A000;}
	.st18{clip-path:url(#XMLID_381_);}
	.st19{fill:#0095D7;}
	.st20{fill:#FFB612;}
	.st21{fill:#00A18A;}
	.st22{fill:#B3D107;stroke:#B3D107;stroke-width:0.5;stroke-miterlimit:10;}
	.st23{fill:url(#XMLID_384_);}
	.st24{fill:url(#XMLID_385_);}
	.st25{fill:url(#XMLID_387_);}
	.st26{fill:#5382A1;}
	.st27{fill:#E76F00;}
	.st28{fill:#41B883;}
	.st29{fill:#35495E;}
	.st30{fill:#F7941E;}
	.st31{fill:#FDB813;}
	.st32{fill:#FAA61A;}
	.st33{fill:#F36F21;}
	.st34{fill:#F58220;}
	.st35{fill:#FFCB08;}
	.st36{fill:#FFF200;}
	.st37{fill:#F4813C;}
	.st38{fill:#F15922;}
	.st39{fill:#018FD4;}
	.st40{fill:#1B9AD9;}
	.st41{fill:#007CB9;}
	.st42{fill:#34A3DD;}
	.st43{fill:#497ECF;}
	.st44{fill:#DCB67A;}
	.st45{fill:#CE3C52;}
	.st46{fill:#8AC4E6;}
	.st47{fill:#DFDCDB;}
	.st48{fill:#111111;}
	.st49{fill:#FFFFFF;}
	.st50{fill:#B6927F;}
	.st51{fill:#231815;}
	.st52{fill:#3A88BD;}
	.st53{display:none;}
	.st54{display:inline;fill:#394D54;}
	.st55{fill:#E83A70;}
	.st56{fill:#E5483C;}
	.st57{fill:#0078E5;}
	.st58{fill:#8F7E6E;}
	.st59{fill:none;stroke:#FFFFFF;stroke-width:2;stroke-linecap:round;stroke-linejoin:round;}
	.st60{fill:none;stroke:#2A2A2A;stroke-width:2;stroke-linecap:round;stroke-linejoin:round;}
	.st61{fill:#B7525E;}
	.st62{clip-path:url(#SVGID_4_);fill:#2A2A2A;}
	.st63{clip-path:url(#SVGID_4_);fill:#DCDBDD;}
	.st64{clip-path:url(#SVGID_6_);fill:#2A2A2A;}
	.st65{clip-path:url(#SVGID_6_);fill:#DCDBDD;}
	.st66{fill:#CB3837;}
	.st67{fill:url(#path1948_2_);}
	.st68{fill:url(#path1950_2_);}
	.st69{fill:url(#path1948_3_);}
	.st70{fill:url(#path1950_3_);}
	.st71{fill:url(#SVGID_7_);}
	.st72{fill:url(#SVGID_8_);}
	.st73{fill:url(#SVGID_9_);}
	.st74{fill:url(#SVGID_10_);}
	.st75{fill:url(#SVGID_11_);}
	.st76{fill:url(#SVGID_12_);}
	.st77{fill:url(#SVGID_13_);}
	.st78{fill:url(#SVGID_14_);}
	.st79{fill:url(#SVGID_15_);}
	.st80{fill:url(#SVGID_16_);}
	.st81{fill:url(#SVGID_17_);}
	.st82{fill:url(#SVGID_18_);}
	.st83{fill:#A2AD63;}
	.st84{fill:url(#SVGID_19_);}
	.st85{fill:url(#SVGID_20_);}
	.st86{fill:url(#SVGID_21_);}
	.st87{fill:url(#SVGID_22_);}
	.st88{fill:url(#SVGID_23_);}
	.st89{fill:url(#SVGID_24_);}
	.st90{fill:#DAED72;}
	.st91{fill:#252526;}
	.st92{fill:#FFC017;}
	.st93{fill:#CC66FF;}
	.st94{clip-path:url(#SVGID_26_);fill:#252526;}
	.st95{clip-path:url(#SVGID_26_);fill:#0095D7;}
	.st96{clip-path:url(#SVGID_28_);fill:#252526;}
	.st97{clip-path:url(#SVGID_28_);fill:#0095D7;}
	.st98{fill:#F0400A;}
</style>
<g id="Bases">
	<g>
		<path class="st0" d="M21,11h2c3,0,4,3.3,4,6s-1,6-4,6h-1v2c0,2.1-3.2,3-5.5,3S11,27.1,11,25v-3H9c-2.9,0-4-3.3-4-6s1-6,4-6h1V9V8
			c0-2.2,3.2-3,5.5-3S21,5.6,21,8V11z"/>
		<g>
			<path class="st1" d="M15.5,6C13.2,6,11,6.7,11,8v2h4v1H9c-2,0-3,2.3-3,5s1,5,3,5h2v-2c0-1.7,1.3-3,3-3h4c1.1,0,2-0.9,2-2v-3v-1V8
				C20,6.5,17.8,6,15.5,6z M12.8,9C12.4,9,12,8.7,12,8.3c0-0.4,0.3-0.8,0.7-0.8c0.4,0,0.8,0.3,0.8,0.7C13.5,8.6,13.2,9,12.8,9z"/>
			<path class="st2" d="M16.5,27c2.3,0,4.5-0.7,4.5-2v-2h-4v-1h6c2,0,3-2.3,3-5s-1-5-3-5h-2v2c0,1.7-1.3,3-3,3h-4c-1.1,0-2,0.9-2,2
				v3v1v2C12,26.5,14.2,27,16.5,27z M19.2,24c0.4,0,0.8,0.3,0.8,0.7c0,0.4-0.3,0.8-0.7,0.8c-0.4,0-0.8-0.3-0.8-0.7
				C18.5,24.4,18.8,24,19.2,24z"/>
		</g>
	</g>
</g>
<g id="Overlays">
</g>
<g id="Layer_3">
</g>
</svg>
