<?xml version="1.0" encoding="utf-8"?>
<!-- Generator: Adobe Illustrator 19.2.0, SVG Export Plug-In . SVG Version: 6.00 Build 0)  -->
<svg version="1.1" xmlns="http://www.w3.org/2000/svg" xmlns:xlink="http://www.w3.org/1999/xlink" x="0px" y="0px"
	 viewBox="0 0 32 32" style="enable-background:new 0 0 32 32;" xml:space="preserve">
<style type="text/css">
	.st0{fill:#DCDBDD;}
	.st1{fill:#2A2A2A;}
	.st2{clip-path:url(#SVGID_2_);fill:#2A2A2A;}
	.st3{clip-path:url(#SVGID_2_);fill:#DCDBDD;}
	.st4{fill:#1B5EAB;}
	.st5{fill:#F77737;}
	.st6{fill:#9B4F96;}
	.st7{fill:none;stroke:#9B4F96;stroke-width:2;stroke-miterlimit:10;}
	.st8{fill:#9F67FF;}
	.st9{fill:#57AA54;}
	.st10{fill:#8D4888;}
	.st11{opacity:0;fill:#F6F6F6;}
	.st12{fill:#F05133;}
	.st13{fill:#CC4E51;}
	.st14{fill:#E4A000;}
	.st15{clip-path:url(#XMLID_432_);}
	.st16{fill:#424242;}
	.st17{fill:#0095D7;}
	.st18{fill:#FFB612;}
	.st19{fill:#00A18A;}
	.st20{fill:#879636;}
	.st21{fill:#B3D107;stroke:#B3D107;stroke-width:0.5;stroke-miterlimit:10;}
	.st22{fill:url(#XMLID_434_);}
	.st23{fill:url(#XMLID_435_);}
	.st24{fill:url(#XMLID_436_);}
	.st25{fill:#5382A1;}
	.st26{fill:#E76F00;}
	.st27{fill:#41B883;}
	.st28{fill:#35495E;}
	.st29{fill:#F7941E;}
	.st30{fill:#FDB813;}
	.st31{fill:#FAA61A;}
	.st32{fill:#F36F21;}
	.st33{fill:#F58220;}
	.st34{fill:#FFCB08;}
	.st35{fill:#FFF200;}
	.st36{fill:#F4813C;}
	.st37{fill:#F15922;}
	.st38{fill:#018FD4;}
	.st39{fill:#1B9AD9;}
	.st40{fill:#007CB9;}
	.st41{fill:#34A3DD;}
	.st42{fill:#497ECF;}
	.st43{fill:#DCB67A;}
	.st44{fill:#1BA1E2;}
	.st45{fill:#CE3C52;}
	.st46{fill:#8AC4E6;}
	.st47{fill:#DFDCDB;}
	.st48{fill:#111111;}
	.st49{fill:#FFFFFF;}
	.st50{fill:#B6927F;}
	.st51{fill:#231815;}
	.st52{fill:#3A88BD;}
	.st53{display:none;}
	.st54{display:inline;fill:#394D54;}
	.st55{fill:#E83A70;}
	.st56{fill:#E5483C;}
	.st57{fill:#0078E5;}
	.st58{fill:#8F7E6E;}
	.st59{fill:none;stroke:#FFFFFF;stroke-width:2;stroke-linecap:round;stroke-linejoin:round;}
	.st60{fill:none;stroke:#2A2A2A;stroke-width:2;stroke-linecap:round;stroke-linejoin:round;}
	.st61{fill:#B7525E;}
	.st62{clip-path:url(#SVGID_4_);fill:#2A2A2A;}
	.st63{clip-path:url(#SVGID_4_);fill:#DCDBDD;}
	.st64{clip-path:url(#SVGID_6_);fill:#2A2A2A;}
	.st65{clip-path:url(#SVGID_6_);fill:#DCDBDD;}
	.st66{fill:#CB3837;}
	.st67{fill:#252526;}
	.st68{fill:#FFC017;}
	.st69{fill:#CC66FF;}
	.st70{clip-path:url(#SVGID_8_);fill:#252526;}
	.st71{clip-path:url(#SVGID_8_);fill:#0095D7;}
	.st72{clip-path:url(#SVGID_10_);fill:#252526;}
	.st73{clip-path:url(#SVGID_10_);fill:#0095D7;}
	.st74{fill:#F0400A;}
</style>
<g id="Bases">
	<path class="st0" d="M6,19.1v2.3h0c0,2.5,4.5,4.6,10,4.6s10-2.1,10-4.6h0v-2.3H6z"/>
	<path class="st1" d="M6,16.8v2.3c0,2.5,4.5,4.6,10,4.6s10-2.1,10-4.6v-2.3H6z"/>
	<path class="st0" d="M6,14.4v2.3h0c0,2.5,4.5,4.6,10,4.6s10-2.1,10-4.6h0v-2.3H6z"/>
	<path class="st1" d="M6,12.1v2.3c0,2.5,4.5,4.6,10,4.6s10-2.1,10-4.6v-2.3H6z"/>
	<path class="st0" d="M16,6C10.5,6,6,8.1,6,10.6V12v0.1v9.3l2,1.9v-8.4c1.8,1.1,4.7,1.9,8,1.9s6.2-0.7,8-1.9v8.4l2-1.9v-9.3V12v-1.4
		C26,8.1,21.5,6,16,6z"/>
	<ellipse class="st1" cx="16" cy="10.2" rx="8" ry="3.1"/>
</g>
<g id="Overlays">
</g>
<g id="Layer_3">
</g>
</svg>
